<svg width="2183" height="467" viewBox="0 0 2183 467" fill="none" xmlns="http://www.w3.org/2000/svg">
<rect width="2183" height="467" fill="#020202"/>
<path d="M264.844 224.719V233.938C264.844 251.333 262.396 266.958 257.5 280.812C252.708 294.562 245.885 306.333 237.031 316.125C228.177 325.812 217.708 333.26 205.625 338.469C193.542 343.573 180.208 346.125 165.625 346.125C150.938 346.125 137.5 343.573 125.312 338.469C113.229 333.26 102.708 325.812 93.75 316.125C84.8958 306.333 78.0208 294.562 73.125 280.812C68.3333 266.958 65.9375 251.333 65.9375 233.938V224.719C65.9375 207.323 68.3333 191.698 73.125 177.844C78.0208 163.99 84.8438 152.219 93.5938 142.531C102.448 132.74 112.917 125.292 125 120.188C137.188 114.979 150.625 112.375 165.312 112.375C179.896 112.375 193.229 114.979 205.312 120.188C217.5 125.292 228.021 132.74 236.875 142.531C245.729 152.219 252.604 163.99 257.5 177.844C262.396 191.698 264.844 207.323 264.844 224.719ZM209.219 233.938V224.406C209.219 213.156 208.229 203.26 206.25 194.719C204.375 186.073 201.562 178.833 197.812 173C194.062 167.167 189.427 162.792 183.906 159.875C178.49 156.854 172.292 155.344 165.312 155.344C158.021 155.344 151.667 156.854 146.25 159.875C140.833 162.792 136.302 167.167 132.656 173C129.01 178.833 126.25 186.073 124.375 194.719C122.604 203.26 121.719 213.156 121.719 224.406V233.938C121.719 245.083 122.604 254.979 124.375 263.625C126.25 272.167 129.01 279.406 132.656 285.344C136.406 291.281 140.99 295.76 146.406 298.781C151.927 301.802 158.333 303.312 165.625 303.312C172.604 303.312 178.802 301.802 184.219 298.781C189.635 295.76 194.167 291.281 197.812 285.344C201.562 279.406 204.375 272.167 206.25 263.625C208.229 254.979 209.219 245.083 209.219 233.938ZM384.062 265.812H327.5V223.469H384.062C391.771 223.469 398.021 222.167 402.812 219.562C407.604 216.958 411.094 213.365 413.281 208.781C415.573 204.094 416.719 198.833 416.719 193C416.719 186.75 415.573 180.969 413.281 175.656C411.094 170.344 407.604 166.073 402.812 162.844C398.021 159.51 391.771 157.844 384.062 157.844H348.125V343H293.281V115.5H384.062C402.292 115.5 417.969 118.833 431.094 125.5C444.323 132.167 454.479 141.333 461.562 153C468.646 164.562 472.188 177.792 472.188 192.688C472.188 207.375 468.646 220.188 461.562 231.125C454.479 242.062 444.323 250.604 431.094 256.75C417.969 262.792 402.292 265.812 384.062 265.812ZM658.281 300.812V343H537.031V300.812H658.281ZM556.562 115.5V343H501.719V115.5H556.562ZM642.656 205.812V246.594H537.031V205.812H642.656ZM658.75 115.5V157.844H537.031V115.5H658.75ZM870.781 115.5V343H816.094L735.625 201.438V343H680.781V115.5H735.625L816.094 257.062V115.5H870.781ZM1102.34 282.531C1102.34 278.99 1101.82 275.812 1100.78 273C1099.74 270.083 1097.81 267.375 1095 264.875C1092.19 262.375 1088.12 259.875 1082.81 257.375C1077.6 254.771 1070.73 252.062 1062.19 249.25C1052.19 245.917 1042.55 242.167 1033.28 238C1024.01 233.729 1015.73 228.781 1008.44 223.156C1001.15 217.427 995.365 210.76 991.094 203.156C986.823 195.448 984.688 186.49 984.688 176.281C984.688 166.49 986.875 157.688 991.25 149.875C995.625 141.958 1001.72 135.24 1009.53 129.719C1017.45 124.094 1026.72 119.823 1037.34 116.906C1047.97 113.885 1059.58 112.375 1072.19 112.375C1088.85 112.375 1103.54 115.292 1116.25 121.125C1129.06 126.854 1139.06 135.031 1146.25 145.656C1153.54 156.177 1157.19 168.625 1157.19 183H1102.66C1102.66 177.271 1101.46 172.219 1099.06 167.844C1096.77 163.469 1093.28 160.031 1088.59 157.531C1083.91 155.031 1078.02 153.781 1070.94 153.781C1064.06 153.781 1058.28 154.823 1053.59 156.906C1048.91 158.99 1045.36 161.802 1042.97 165.344C1040.57 168.781 1039.38 172.583 1039.38 176.75C1039.38 180.188 1040.31 183.312 1042.19 186.125C1044.17 188.833 1046.93 191.385 1050.47 193.781C1054.11 196.177 1058.49 198.469 1063.59 200.656C1068.8 202.844 1074.64 204.979 1081.09 207.062C1093.18 210.917 1103.91 215.24 1113.28 220.031C1122.76 224.719 1130.73 230.083 1137.19 236.125C1143.75 242.062 1148.7 248.833 1152.03 256.438C1155.47 264.042 1157.19 272.635 1157.19 282.219C1157.19 292.427 1155.21 301.49 1151.25 309.406C1147.29 317.323 1141.61 324.042 1134.22 329.562C1126.82 334.979 1117.97 339.094 1107.66 341.906C1097.34 344.719 1085.83 346.125 1073.12 346.125C1061.46 346.125 1049.95 344.667 1038.59 341.75C1027.34 338.729 1017.14 334.146 1007.97 328C998.802 321.75 991.458 313.781 985.938 304.094C980.521 294.302 977.812 282.688 977.812 269.25H1032.81C1032.81 275.917 1033.7 281.542 1035.47 286.125C1037.24 290.708 1039.84 294.406 1043.28 297.219C1046.72 299.927 1050.94 301.906 1055.94 303.156C1060.94 304.302 1066.67 304.875 1073.12 304.875C1080.1 304.875 1085.73 303.885 1090 301.906C1094.27 299.823 1097.4 297.115 1099.38 293.781C1101.35 290.344 1102.34 286.594 1102.34 282.531ZM1295.62 115.5V343H1240.78V115.5H1295.62ZM1364.06 115.5V157.844H1173.91V115.5H1364.06ZM1510.78 115.5H1565.62V264.094C1565.62 281.802 1561.93 296.802 1554.53 309.094C1547.14 321.281 1536.77 330.5 1523.44 336.75C1510.1 343 1494.43 346.125 1476.41 346.125C1458.59 346.125 1442.92 343 1429.38 336.75C1415.94 330.5 1405.42 321.281 1397.81 309.094C1390.31 296.802 1386.56 281.802 1386.56 264.094V115.5H1441.56V264.094C1441.56 273.469 1442.92 281.125 1445.62 287.062C1448.33 292.896 1452.29 297.167 1457.5 299.875C1462.71 302.583 1469.01 303.938 1476.41 303.938C1483.91 303.938 1490.21 302.583 1495.31 299.875C1500.42 297.167 1504.27 292.896 1506.88 287.062C1509.48 281.125 1510.78 273.469 1510.78 264.094V115.5ZM1674.06 343H1623.59L1623.91 300.812H1674.06C1684.48 300.812 1693.28 298.312 1700.47 293.312C1707.76 288.312 1713.28 280.865 1717.03 270.969C1720.89 260.969 1722.81 248.677 1722.81 234.094V224.25C1722.81 213.312 1721.72 203.729 1719.53 195.5C1717.45 187.167 1714.32 180.24 1710.16 174.719C1705.99 169.094 1700.78 164.875 1694.53 162.062C1688.39 159.25 1681.3 157.844 1673.28 157.844H1622.66V115.5H1673.28C1688.7 115.5 1702.81 118.156 1715.62 123.469C1728.54 128.677 1739.69 136.177 1749.06 145.969C1758.54 155.656 1765.83 167.167 1770.94 180.5C1776.15 193.729 1778.75 208.417 1778.75 224.562V234.094C1778.75 250.135 1776.15 264.823 1770.94 278.156C1765.83 291.49 1758.59 303 1749.22 312.688C1739.84 322.375 1728.75 329.875 1715.94 335.188C1703.23 340.396 1689.27 343 1674.06 343ZM1655 115.5V343H1600.16V115.5H1655ZM1865.62 115.5V343H1810.94V115.5H1865.62ZM2096.72 224.719V233.938C2096.72 251.333 2094.27 266.958 2089.38 280.812C2084.58 294.562 2077.76 306.333 2068.91 316.125C2060.05 325.812 2049.58 333.26 2037.5 338.469C2025.42 343.573 2012.08 346.125 1997.5 346.125C1982.81 346.125 1969.38 343.573 1957.19 338.469C1945.1 333.26 1934.58 325.812 1925.62 316.125C1916.77 306.333 1909.9 294.562 1905 280.812C1900.21 266.958 1897.81 251.333 1897.81 233.938V224.719C1897.81 207.323 1900.21 191.698 1905 177.844C1909.9 163.99 1916.72 152.219 1925.47 142.531C1934.32 132.74 1944.79 125.292 1956.88 120.188C1969.06 114.979 1982.5 112.375 1997.19 112.375C2011.77 112.375 2025.1 114.979 2037.19 120.188C2049.38 125.292 2059.9 132.74 2068.75 142.531C2077.6 152.219 2084.48 163.99 2089.38 177.844C2094.27 191.698 2096.72 207.323 2096.72 224.719ZM2041.09 233.938V224.406C2041.09 213.156 2040.1 203.26 2038.12 194.719C2036.25 186.073 2033.44 178.833 2029.69 173C2025.94 167.167 2021.3 162.792 2015.78 159.875C2010.36 156.854 2004.17 155.344 1997.19 155.344C1989.9 155.344 1983.54 156.854 1978.12 159.875C1972.71 162.792 1968.18 167.167 1964.53 173C1960.89 178.833 1958.12 186.073 1956.25 194.719C1954.48 203.26 1953.59 213.156 1953.59 224.406V233.938C1953.59 245.083 1954.48 254.979 1956.25 263.625C1958.12 272.167 1960.89 279.406 1964.53 285.344C1968.28 291.281 1972.86 295.76 1978.28 298.781C1983.8 301.802 1990.21 303.312 1997.5 303.312C2004.48 303.312 2010.68 301.802 2016.09 298.781C2021.51 295.76 2026.04 291.281 2029.69 285.344C2033.44 279.406 2036.25 272.167 2038.12 263.625C2040.1 254.979 2041.09 245.083 2041.09 233.938Z" fill="#FAFAFA"/>
</svg>
